<?xml version="1.0" encoding="utf-8"?>
<!-- Generator: Adobe Illustrator 28.3.0, SVG Export Plug-In . SVG Version: 6.00 Build 0)  -->
<svg version="1.1" id="Capa_1" xmlns="http://www.w3.org/2000/svg" xmlns:xlink="http://www.w3.org/1999/xlink" x="0px" y="0px"
	 viewBox="0 0 60 60" style="enable-background:new 0 0 60 60;" xml:space="preserve">
<style type="text/css">
	.st0{stroke:#000000;stroke-width:0.1;stroke-miterlimit:10;}
</style>
<g>
	<path class="st0" d="M5.3,52.9L5.3,52.9c0.1-0.1,0.4-0.1,0.4-0.3c0-0.1-0.2-0.7-0.4-1.4H3.7c-0.1,0.3-0.2,0.6-0.4,0.9
		c-0.1,0.2-0.1,0.4-0.1,0.5c0,0.2,0.3,0.3,0.5,0.3v0.1H2.4v-0.1c0.2,0,0.4-0.1,0.4-0.2C2.8,52.6,3,52.4,3.2,52c0.4-0.8,0.9-2,1.3-3
		l-0.1-0.1c0.3-0.1,0.5-0.4,0.5-0.5h0l1.3,3.5c0.1,0.3,0.2,0.4,0.3,0.6c0,0.1,0.2,0.4,0.6,0.4v0.1H5.3z M4.5,49.2
		c-0.1,0.2-0.4,0.9-0.8,1.9h1.5C5,50.3,4.7,49.5,4.5,49.2z"/>
	<path class="st0" d="M11.7,48.9c-0.1,0.1-0.1,0.6-0.1,0.9c0,0.4,0,0.8,0,1.3c0,0.5,0,1.8-1.8,1.8c-1.8,0-1.8-1.3-1.8-1.6
		c0-0.2,0-0.6,0-1.1v-0.8c0-0.3,0-0.6-0.1-0.7c-0.1-0.1-0.3-0.2-0.5-0.2v-0.1h1.8v0.1c-0.2,0-0.6,0.1-0.6,0.5c0,0.4,0,0.6,0,1.1
		c0,0.6,0,0.9,0,1.3c0,0.9,0.5,1.4,1.3,1.4c1.4,0,1.5-1.1,1.5-1.9c0-0.4,0-0.7,0-1.1c0-0.3,0-0.7-0.1-0.9c-0.1-0.2-0.3-0.4-0.7-0.4
		v-0.1h1.5v0.1C11.9,48.6,11.8,48.7,11.7,48.9z"/>
	<path class="st0" d="M17.2,49.6c-0.1-0.3-0.4-0.7-0.5-0.8c-0.2-0.2-0.4-0.2-0.7-0.2c-0.3,0-0.4,0-0.8,0c0,0.4,0,1.5,0,2V52
		c0,0.2,0,0.5,0.1,0.6c0.1,0.2,0.4,0.2,0.6,0.3v0.1h-2v-0.1c0.2,0,0.4-0.1,0.6-0.3c0.1-0.1,0.1-0.4,0.1-0.7c0-0.2,0-0.8,0-1.3v-2.1
		c-0.4,0-0.5,0-0.8,0c-0.3,0-0.5,0.1-0.7,0.2c-0.1,0.1-0.4,0.5-0.5,0.8l-0.1,0l0.2-1.2c0.2,0,0.3,0.1,0.6,0.1c0.6,0,0.9,0,1.5,0
		s0.9,0,1.5,0c0.3,0,0.4,0,0.6-0.1L17.2,49.6L17.2,49.6z"/>
	<path class="st0" d="M19.9,53c-1.3,0-2.3-0.9-2.3-2.3c0-1.4,1.1-2.3,2.4-2.3c1.4,0,2.3,1.1,2.3,2.3C22.2,52,21.2,53,19.9,53z
		 M19.9,48.5c-1.1,0-1.5,1.1-1.5,2.2c0,1.1,0.5,2.2,1.6,2.2c1,0,1.5-1.2,1.5-2.2C21.5,49.7,20.9,48.5,19.9,48.5z"/>
	<path class="st0" d="M26.5,52.9L26.5,52.9c0.4-0.1,0.6-0.2,0.7-0.4c0-0.1,0.1-0.3,0.1-0.4c0-0.5,0-1,0-1.5v-1.8l-1.4,3.2
		c-0.1,0.2-0.3,0.8-0.4,0.9h0c-0.8-1.8-1.6-3.7-1.7-4c0,1.1,0,1.6,0,2.8c0,0.8,0,1.1,0.8,1.2v0.1h-1.6v-0.1c0.6-0.1,0.7-0.4,0.7-1.3
		c0-0.4,0-0.9,0-1.4c0-0.5,0-0.6,0-1.1c0-0.5-0.4-0.6-0.6-0.6v-0.1h1.3l1.5,3.4c0.7-1.6,1.4-3.2,1.5-3.4h1.3v0.1
		c-0.3,0-0.5,0.2-0.6,0.3c0,0.1-0.1,0.5-0.1,0.8c0,0.4,0,0.8,0,1.1c0,0.4,0,0.9,0,1.4c0,0.2,0,0.3,0.1,0.4c0,0,0.2,0.3,0.6,0.3v0.1
		H26.5z"/>
	<path class="st0" d="M31.6,53c-1.3,0-2.3-0.9-2.3-2.3c0-1.4,1.1-2.3,2.4-2.3c1.4,0,2.3,1.1,2.3,2.3C34,52,32.9,53,31.6,53z
		 M31.6,48.5c-1.1,0-1.5,1.1-1.5,2.2c0,1.1,0.5,2.2,1.6,2.2c1,0,1.5-1.2,1.5-2.2C33.2,49.7,32.7,48.5,31.6,48.5z"/>
	<path class="st0" d="M39,49.6c-0.1-0.3-0.4-0.7-0.5-0.8c-0.2-0.2-0.4-0.2-0.7-0.2c-0.3,0-0.4,0-0.8,0c0,0.4,0,1.5,0,2V52
		c0,0.2,0,0.5,0.1,0.6c0.1,0.2,0.4,0.2,0.6,0.3v0.1h-2v-0.1c0.2,0,0.4-0.1,0.6-0.3c0.1-0.1,0.1-0.4,0.1-0.7c0-0.2,0-0.8,0-1.3v-2.1
		c-0.4,0-0.5,0-0.8,0c-0.3,0-0.5,0.1-0.7,0.2c-0.1,0.1-0.4,0.5-0.5,0.8l-0.1,0l0.2-1.2c0.2,0,0.3,0.1,0.6,0.1c0.6,0,0.9,0,1.5,0
		s0.9,0,1.5,0c0.3,0,0.4,0,0.6-0.1L39,49.6L39,49.6z"/>
	<path class="st0" d="M41.7,53c-1.3,0-2.3-0.9-2.3-2.3c0-1.4,1.1-2.3,2.4-2.3c1.4,0,2.3,1.1,2.3,2.3C44,52,42.9,53,41.7,53z
		 M41.7,48.5c-1.1,0-1.5,1.1-1.5,2.2c0,1.1,0.5,2.2,1.6,2.2c1,0,1.5-1.2,1.5-2.2C43.2,49.7,42.7,48.5,41.7,48.5z"/>
	<path class="st0" d="M48.1,52.9c-0.1-0.1-0.1-0.1-0.4-0.5c-0.3-0.5-0.5-0.7-0.8-1.2c-0.2-0.2-0.4-0.4-0.6-0.4c-0.2,0-0.2,0-0.3,0
		c0,0.5,0,0.9,0,1.2c0,0.3,0,0.5,0.1,0.6c0.1,0.1,0.3,0.2,0.6,0.3v0.1h-2v-0.1c0.2,0,0.4-0.1,0.5-0.2c0.1-0.1,0.1-0.4,0.1-0.7
		c0-0.2,0-0.8,0-1.3v-1.2c0-0.3,0-0.6-0.1-0.7c-0.1-0.1-0.3-0.2-0.5-0.2v-0.1c0.1,0,1.3,0,1.7,0c0.6,0,1,0,1.3,0.2
		c0.4,0.2,0.6,0.5,0.6,1c0,0.6-0.5,1-1,1.1v0c0.1,0.1,0.3,0.2,0.4,0.4c0.2,0.3,0.5,0.7,0.7,1c0.3,0.4,0.6,0.6,1,0.7v0.1H48.1z
		 M47.1,48.7c-0.2-0.1-0.4-0.1-0.7-0.1c-0.2,0-0.3,0-0.3,0c0,0.1,0,0.1,0,0.5c0,0.6,0,1.6,0,1.7c0.3,0,0.6,0,0.9-0.1
		c0.5-0.2,0.8-0.6,0.8-1C47.7,49.2,47.5,48.9,47.1,48.7z"/>
	<path class="st0" d="M53.5,52.9h-3.8v-0.1c0.2,0,0.4-0.1,0.5-0.2c0.1-0.1,0.1-0.4,0.1-0.7c0-0.2,0-0.8,0-1.3v-1.2
		c0-0.3,0-0.7-0.1-0.8c-0.1-0.1-0.2-0.1-0.5-0.2v-0.1h3.4l0.4,1l-0.1,0c-0.3-0.4-0.7-0.7-0.9-0.8c-0.1-0.1-0.5-0.1-1.1-0.1
		c-0.2,0-0.4,0-0.5,0c0,0.1,0,0.6,0,1.1c0,0.6,0,0.8,0,0.9c0.1,0,0.6,0,0.8,0c0.5-0.1,0.6-0.4,0.7-0.9h0.1v2h-0.1
		c-0.1-0.3-0.2-0.6-0.4-0.7c-0.1-0.1-0.3-0.2-0.6-0.2c-0.2,0-0.3,0-0.6,0c0,0.1,0,0.4,0,0.6c0,0.2,0,0.6,0,0.7c0,0.3,0,0.5,0.1,0.6
		s0.4,0.2,0.7,0.2c0.1,0,0.4,0,0.6,0c0.5-0.1,0.9-0.4,1.3-1.1l0.1,0L53.5,52.9z"/>
	<path class="st0" d="M56,53c-0.8,0-1.1-0.3-1.2-0.3c0,0-0.1,0.1-0.2,0.2h-0.1l0-1.2h0.1c0.1,0.4,0.5,0.9,0.8,1
		C55.5,52.8,55.8,52.9,56,53c0.6-0.1,1-0.5,1-1c0-0.5-0.3-0.7-0.7-0.8c-0.4-0.1-0.5-0.2-0.9-0.3c-0.4-0.2-0.8-0.6-0.8-1.1
		c0-0.9,0.7-1.3,1.5-1.3c0.7,0,1,0.3,1.1,0.3s0.1-0.1,0.2-0.2h0.1v1.1h-0.1c-0.2-0.6-0.6-1.1-1.3-1.1c-0.5,0-0.9,0.3-0.9,0.9
		c0,0.4,0.3,0.7,0.7,0.8c0.3,0.1,0.6,0.2,0.9,0.3c0.6,0.2,0.9,0.6,0.9,1.2C57.6,52.5,57,53,56,53z"/>
</g>
<g>
	<path d="M44.1,30.4C44.1,30.4,44.1,30.5,44.1,30.4l-2.5,10.1c-0.3,1.3-1.4,2.1-2.7,2.1H16l-0.2-0.2c0.8-0.3,1.5-0.7,1.9-1.2
		c0.5-0.5,0.8-1.4,1-2.5c0.2-1.1,0.3-2.7,0.3-4.7V14.4c-0.1-1-0.1-2.6,0.2-4.3c0.1-0.6,0.2-1.2,0.6-1.9c0.1-0.2,0.4-0.6,1-1.1
		c0,0,2.6-2.1,5.7-1.5c0.1,0,0.1,0,0.1,0c0,0,0.1,0,0.1,0.1l0.2,0.2c-0.9,0.2-1.5,0.6-2,1.2c-0.5,0.6-0.8,1.4-1,2.5
		c-0.2,1.1-0.3,2.7-0.3,4.7v27.2c0.2-0.1,0.3-0.3,0.4-0.4c0.5-0.5,0.8-1.4,1-2.5c0.2-1.1,0.3-2.7,0.3-4.7V14.4
		c-0.1-1-0.1-2.6,0.2-4.3C25.5,9.6,25.6,9,26,8.3c0.1-0.2,0.4-0.6,1-1.1c0,0,2.6-2.1,5.7-1.5c0.1,0,0.1,0,0.1,0c0,0,0.1,0,0.1,0.1
		L33,6.1c-0.9,0.2-1.5,0.6-2,1.2c-0.5,0.6-0.8,1.4-1,2.5c-0.2,1.1-0.3,2.7-0.3,4.7v27.2h0.1c2.1,0,4-0.4,5.7-1.3
		c1.7-0.8,3.3-2.1,4.7-3.8c1.3-1.7,2.5-3.7,3.4-6.2c0-0.1,0.2-0.2,0.3-0.1C44.1,30.2,44.1,30.3,44.1,30.4z"/>
</g>
</svg>
